<svg width="1840" height="221" viewBox="0 0 1840 221" fill="none" xmlns="http://www.w3.org/2000/svg">
<path d="M1701.29 0H1732.81V126.103H1746.05L1799.02 63.0517H1840L1773.8 141.866L1840 220.681H1799.02L1746.05 157.629H1732.81V220.681H1701.29V0Z" fill="white"/>
<path d="M1650.97 163.934C1650.97 200.819 1631.11 220.681 1594.22 220.681H1569C1532.12 220.681 1512.25 200.819 1512.25 163.934V119.798C1512.25 82.9128 1532.12 63.0515 1569 63.0515H1594.22C1631.11 63.0515 1650.97 82.9128 1650.97 119.798V126.103H1619.76C1619.76 98.6757 1615.66 94.5773 1586.97 94.5773H1576.57C1547.56 94.5773 1543.78 98.3604 1543.78 127.049V156.683C1543.78 185.372 1547.56 189.155 1576.57 189.155H1586.97C1615.66 189.155 1619.76 185.056 1619.76 157.629H1650.97V163.934Z" fill="white"/>
<path d="M1379.97 220.681C1343.08 220.681 1323.22 200.819 1323.22 163.934V119.798C1323.22 82.9128 1343.08 63.0515 1379.97 63.0515H1408.34L1430.41 85.1196V63.0515H1461.94V220.681H1430.73V198.613L1408.66 220.681H1379.97ZM1387.54 189.155H1397.62C1426.63 189.155 1430.41 185.372 1430.41 156.683V116.015C1429.15 97.7299 1422.53 94.5773 1397.94 94.5773H1387.54C1358.53 94.5773 1354.75 98.3604 1354.75 127.049V156.683C1354.75 185.372 1358.53 189.155 1387.54 189.155Z" fill="white"/>
<path d="M1219.31 0V189.155H1272.9V220.681H1134.19V189.155H1187.78V31.5258H1134.19V0H1219.31Z" fill="white"/>
<path d="M945.159 0H1018.93C1055.81 0 1075.68 19.8613 1075.68 63.0517C1075.68 81.3366 1071.89 95.8385 1064.96 105.927C1077.57 116.015 1083.87 133.039 1083.87 157.629C1083.87 200.82 1064.01 220.681 1027.13 220.681H945.159V0ZM976.685 189.155H1019.88C1048.88 189.155 1052.66 185.372 1052.66 156.683C1052.66 129.886 1048.88 126.103 1019.88 126.103H976.685V189.155ZM976.685 94.5775H1011.68C1040.68 94.5775 1044.47 90.7944 1044.47 62.1059C1044.47 38.4615 1040.68 31.5258 1011.68 31.5258H976.685V94.5775Z" fill="white"/>
<path d="M812.874 220.681C775.988 220.681 756.127 202.396 756.127 171.185V168.033H787.338C787.338 183.795 791.121 189.155 820.125 189.155H830.843C857.64 189.155 863.63 187.579 863.63 174.022C863.63 149.748 756.127 166.141 756.127 112.862C756.127 81.6518 775.988 63.3668 812.874 63.3668H838.094C874.98 63.3668 894.841 83.2281 894.841 120.113V121.059H863.63C863 98.0452 857.64 94.8926 830.843 94.8926H820.125C791.121 94.8926 787.338 96.7842 787.338 110.656C787.338 133.985 894.841 121.059 894.841 170.239C894.841 207.125 874.98 220.681 838.094 220.681H812.874Z" fill="white"/>
<path d="M598.621 156.683C598.621 185.372 602.404 189.155 631.408 189.155H641.496C670.5 189.155 674.283 185.372 674.283 156.683V63.0515H705.809V220.681H674.283V198.613L652.215 220.681H623.842C586.957 220.681 567.095 200.819 567.095 163.934V63.0515H598.621V156.683Z" fill="white"/>
<path d="M482.414 63.0515H516.777L482.414 141.866L516.777 220.681H482.414L454.987 157.629H439.854L412.427 220.681H378.064L412.427 141.866L378.064 63.0515H412.427L439.854 126.103H454.987L482.414 63.0515Z" fill="white"/>
<path d="M245.778 220.681C208.893 220.681 189.032 200.819 189.032 163.934V119.798C189.032 82.9128 208.893 63.0515 245.778 63.0515H270.999C307.884 63.0515 327.745 82.9128 327.745 119.798V154.476H220.242V159.205C220.242 186.318 224.025 189.155 253.029 189.155H263.748C290.545 189.155 295.904 186.948 296.535 170.239H327.745C327.745 200.819 307.884 220.681 270.999 220.681H245.778ZM296.535 126.103C296.535 98.3604 292.752 94.5773 263.748 94.5773H253.029C224.025 94.5773 220.242 98.3604 220.242 126.103H296.535Z" fill="white"/>
<path d="M0 0H40.6683L107.188 160.466V0H138.714V220.681H98.0453L31.5258 60.2143V220.681H0V0Z" fill="white"/>
</svg>
